<svg width="22" height="22" viewBox="0 0 22 22" fill="none" xmlns="http://www.w3.org/2000/svg">
<path d="M10.5 0.5C16.0228 0.5 20.5 4.97715 20.5 10.5C20.5 10.7628 20.4899 11.0232 20.47 11.2809C20.0319 10.8658 19.5361 10.5111 18.9958 10.23C18.8532 5.66054 15.1041 2 10.5 2C5.80558 2 2 5.80558 2 10.5C2 11.9696 2.37277 13.3834 3.07303 14.6375L3.22368 14.9072L2.11096 18.8914L6.09755 17.7792L6.36709 17.9295C7.54305 18.5852 8.8592 18.9531 10.23 18.9958C10.5111 19.5361 10.8658 20.0319 11.2809 20.47C11.0232 20.4899 10.7628 20.5 10.5 20.5C8.8817 20.5 7.31782 20.1146 5.91286 19.388L2.08704 20.4553C1.42212 20.641 0.73258 20.2525 0.54691 19.5876C0.48546 19.3676 0.48549 19.1349 0.54695 18.9151L1.61461 15.0922C0.88637 13.686 0.5 12.1203 0.5 10.5C0.5 4.97715 4.97715 0.5 10.5 0.5ZM21.5 16C21.5 12.9624 19.0376 10.5 16 10.5C12.9624 10.5 10.5 12.9624 10.5 16C10.5 19.0376 12.9624 21.5 16 21.5C19.0376 21.5 21.5 19.0376 21.5 16ZM16.5006 16.5L16.5011 19.0035C16.5011 19.2797 16.2773 19.5035 16.0011 19.5035C15.725 19.5035 15.5011 19.2797 15.5011 19.0035L15.5006 16.5H12.9956C12.7197 16.5 12.4961 16.2762 12.4961 16C12.4961 15.7239 12.7197 15.5 12.9956 15.5H15.5005L15.5 12.9993C15.5 12.7231 15.7239 12.4993 16 12.4993C16.2761 12.4993 16.5 12.7231 16.5 12.9993L16.5005 15.5H18.9966C19.2725 15.5 19.4961 15.7239 19.4961 16C19.4961 16.2762 19.2725 16.5 18.9966 16.5H16.5006Z" fill="#22DB6C"/>
<path d="M16.5006 16.5L16.5011 19.0035C16.5011 19.2797 16.2773 19.5035 16.0011 19.5035C15.725 19.5035 15.5011 19.2797 15.5011 19.0035L15.5006 16.5H12.9956C12.7197 16.5 12.4961 16.2762 12.4961 16C12.4961 15.7239 12.7197 15.5 12.9956 15.5H15.5005L15.5 12.9993C15.5 12.7231 15.7239 12.4993 16 12.4993C16.2761 12.4993 16.5 12.7231 16.5 12.9993L16.5005 15.5H18.9966C19.2725 15.5 19.4961 15.7239 19.4961 16C19.4961 16.2762 19.2725 16.5 18.9966 16.5H16.5006Z" fill="#22DB6C"/>
</svg>
