<svg width="22" height="30" viewBox="0 0 22 30" fill="none" xmlns="http://www.w3.org/2000/svg">
<path d="M3.99604 1.4262L5.64929 0.927875C7.52283 0.363135 9.52464 1.27579 10.3269 3.06055L11.6043 5.90199C12.2881 7.42325 11.9277 9.2111 10.708 10.3486L8.59106 12.3227C8.52915 12.3804 8.48991 12.4583 8.48056 12.5424C8.4178 13.105 8.79917 14.2007 9.67778 15.7226C10.3168 16.8294 10.8951 17.6055 11.3874 18.0421C11.7304 18.3462 11.9192 18.412 11.9997 18.388L14.8476 17.5174C16.4422 17.0299 18.1703 17.6111 19.1459 18.9633L20.9603 21.4779C22.1022 23.0606 21.897 25.2441 20.4799 26.5861L19.2241 27.7753C17.8692 29.0585 15.9403 29.5366 14.143 29.035C10.2413 27.946 6.74316 24.6534 3.60966 19.2261C0.471815 13.7912 -0.629204 9.10989 0.385767 5.18319C0.850249 3.38617 2.21893 1.96187 3.99604 1.4262ZM4.60932 3.46078C3.54305 3.78218 2.72184 4.63677 2.44315 5.71498C1.5894 9.01795 2.56528 13.1672 5.44997 18.1636C8.33082 23.1533 11.4318 26.072 14.7143 26.9882C15.7927 27.2892 16.95 27.0024 17.763 26.2324L19.0186 25.0433C19.6627 24.4332 19.7561 23.4407 19.237 22.7213L17.4227 20.2068C16.9791 19.5922 16.1937 19.3279 15.4688 19.5496L12.6138 20.4224C10.9567 20.9164 9.45267 19.5826 7.83755 16.7851C6.74911 14.8999 6.24181 13.4426 6.3687 12.3066C6.43444 11.718 6.70866 11.1724 7.14176 10.7685L9.25873 8.79448C9.81322 8.27743 9.97698 7.46477 9.66617 6.7733L8.38876 3.93186C8.02406 3.12061 7.11417 2.70575 6.26257 2.96245L4.60932 3.46078Z" fill="#3683FC"/>
</svg>
