<svg width="12" height="16" viewBox="0 0 12 16" fill="none" xmlns="http://www.w3.org/2000/svg">
<path d="M1.16226 1.62774C0.851608 1.62782 0.599608 1.37604 0.599608 1.06539C0.599608 0.754743 0.851308 0.502818 1.16196 0.502743L10.9119 0.499892C11.2226 0.499818 11.4746 0.751593 11.4746 1.06224C11.4746 1.37289 11.2229 1.62482 10.9123 1.62489L1.16226 1.62774Z" fill="#20335B"/>
<path d="M6.11346 15.4939L6.03711 15.499C5.75233 15.499 5.51698 15.2874 5.47971 15.0129L5.47461 14.9365L5.47536 4.67274L2.68401 7.46304C2.48428 7.66269 2.17176 7.68084 1.95156 7.51742L1.88848 7.46297C1.68883 7.26324 1.67068 6.95072 1.83411 6.73052L1.88856 6.66744L5.63683 2.91999C5.83641 2.72042 6.14871 2.70219 6.36891 2.86539L6.43198 2.91977L10.1846 6.66722C10.4044 6.88674 10.4047 7.24292 10.1851 7.46274C9.98557 7.66254 9.67308 7.68092 9.45276 7.51764L9.38963 7.46327L6.60036 4.67799L6.59961 14.9365C6.59961 15.2213 6.38796 15.4566 6.11346 15.4939Z" fill="#20335B"/>
</svg>
