<svg width="17" height="17" viewBox="0 0 17 17" fill="none" xmlns="http://www.w3.org/2000/svg">
<path d="M12.1263 8.00023C14.4044 8.00023 16.2513 9.84703 16.2513 12.1252C16.2513 14.4034 14.4044 16.2502 12.1263 16.2502C9.84807 16.2502 8.00127 14.4034 8.00127 12.1252C8.00127 9.84703 9.84807 8.00023 12.1263 8.00023ZM8.01792 9.4997C7.7954 9.84718 7.61577 10.2247 7.48647 10.6249L2.19056 10.6252C1.88037 10.6252 1.62891 10.8766 1.62891 11.1868V11.62C1.62891 12.0218 1.77224 12.4104 2.03313 12.7159C2.97311 13.8166 4.44752 14.376 6.50127 14.376C6.94857 14.376 7.3685 14.3494 7.76142 14.2966C7.94532 14.6677 8.17595 15.0117 8.44505 15.3214C7.84842 15.4415 7.19975 15.501 6.50127 15.501C4.14185 15.501 2.35234 14.8222 1.17762 13.4464C0.742789 12.9373 0.503906 12.2896 0.503906 11.62V11.1868C0.503906 10.2553 1.25904 9.50015 2.19056 9.50015L8.01792 9.4997ZM12.1263 9.50015L12.0588 9.50623C11.9058 9.53398 11.7851 9.65473 11.7573 9.8078L11.7513 9.87515L11.7505 11.7502H9.8792L9.81177 11.7562C9.6587 11.7841 9.53802 11.9047 9.5102 12.0578L9.5042 12.1252L9.5102 12.1926C9.53802 12.3457 9.6587 12.4664 9.81177 12.4942L9.8792 12.5002H11.7505L11.7513 14.3752L11.7573 14.4426C11.7851 14.5957 11.9058 14.7163 12.0588 14.7442L12.1263 14.7502L12.1936 14.7442C12.3467 14.7163 12.4675 14.5957 12.4952 14.4426L12.5013 14.3752L12.5005 12.5002H14.3792L14.4466 12.4942C14.5996 12.4664 14.7204 12.3457 14.7481 12.1926L14.7542 12.1252L14.7481 12.0578C14.7204 11.9047 14.5996 11.7841 14.4466 11.7562L14.3792 11.7502H12.5005L12.5013 9.87515L12.4952 9.8078C12.4675 9.65473 12.3467 9.53398 12.1936 9.50623L12.1263 9.50015ZM6.50127 0.503662C8.57232 0.503662 10.2513 2.1826 10.2513 4.25366C10.2513 6.32474 8.57232 8.00368 6.50127 8.00368C4.43018 8.00368 2.75124 6.32474 2.75124 4.25366C2.75124 2.1826 4.43018 0.503662 6.50127 0.503662ZM6.50127 1.62866C5.0515 1.62866 3.87624 2.80392 3.87624 4.25366C3.87624 5.70341 5.0515 6.87868 6.50127 6.87868C7.95102 6.87868 9.12627 5.70341 9.12627 4.25366C9.12627 2.80392 7.95102 1.62866 6.50127 1.62866Z" fill="#20335B"/>
</svg>
