<svg width="16" height="16" viewBox="0 0 16 16" fill="none" xmlns="http://www.w3.org/2000/svg">
<path d="M6.94333 0.884755C7.62102 0.61003 8.37898 0.61003 9.05667 0.884755L14.6806 3.16473C15.1759 3.36553 15.5 3.84662 15.5 4.38107V11.6206C15.5 12.1551 15.1759 12.6361 14.6806 12.837L9.05667 15.1169C8.37898 15.3916 7.62102 15.3916 6.94333 15.1169L1.31939 12.837C0.824082 12.6361 0.5 12.1551 0.5 11.6206V4.38107C0.5 3.84662 0.824082 3.36553 1.31939 3.16473L6.94333 0.884755ZM8.63398 1.92734C8.2274 1.7625 7.7726 1.7625 7.36602 1.92734L5.93073 2.5092L11.5758 4.70453L13.5778 3.93156L8.63398 1.92734ZM10.0183 5.3059L4.41104 3.12529L2.44272 3.92326L8.00097 6.08481L10.0183 5.3059ZM1.625 11.6206C1.625 11.697 1.6713 11.7657 1.74205 11.7944L7.36602 14.0743C7.38973 14.084 7.41373 14.0931 7.43773 14.1015V7.07285L1.625 4.81234V11.6206ZM8.63398 14.0743L14.2579 11.7944C14.3287 11.7657 14.375 11.697 14.375 11.6206V4.82969L8.56273 7.07382V14.1014C8.58665 14.0929 8.61042 14.0839 8.63398 14.0743Z" fill="white"/>
</svg>
